<svg width="69" height="59" viewBox="0 0 69 59" fill="none" xmlns="http://www.w3.org/2000/svg">
<ellipse rx="26.5909" ry="26.8831" transform="matrix(-1 0 0 1 36.0507 28.8831)" stroke="white" stroke-width="4"/>
<path d="M9.9598 28.8831C9.9598 43.4593 21.6462 55.2663 36.0507 55.2663C50.4552 55.2663 62.1416 43.4593 62.1416 28.8831C62.1416 14.307 50.4552 2.50003 36.0507 2.50003C21.6462 2.50003 9.9598 14.307 9.9598 28.8831Z" fill="#E3E1EB" stroke="#323138"/>
<mask id="mask0_148_899" style="mask-type:alpha" maskUnits="userSpaceOnUse" x="38" y="3" width="22" height="18">
<ellipse rx="10.4814" ry="8.8264" transform="matrix(-1 0 0 1 48.8521 12.1535)" fill="#8CF75A"/>
</mask>
<g mask="url(#mask0_148_899)">
<circle r="26.6631" transform="matrix(-1 0 0 1 35.2451 28.519)" fill="#CAC9D1"/>
</g>
<mask id="mask1_148_899" style="mask-type:alpha" maskUnits="userSpaceOnUse" x="48" y="12" width="21" height="19">
<ellipse rx="10.4814" ry="8.8264" transform="matrix(-1 0 0 1 58.5186 21.8201)" fill="#4EE54B"/>
</mask>
<g mask="url(#mask1_148_899)">
<circle r="26.6631" transform="matrix(-1 0 0 1 34.6138 28.2567)" fill="#CAC9D1"/>
</g>
<mask id="mask2_148_899" style="mask-type:alpha" maskUnits="userSpaceOnUse" x="0" y="10" width="21" height="21">
<ellipse rx="10.4814" ry="9.9297" transform="matrix(-1 0 0 1 10.4813 20.2243)" fill="#4EE54B"/>
</mask>
<g mask="url(#mask2_148_899)">
<circle r="26.6631" transform="matrix(-1 0 0 1 36.2248 28.8671)" fill="#CAC9D1"/>
</g>
<mask id="mask3_148_899" style="mask-type:alpha" maskUnits="userSpaceOnUse" x="4" y="26" width="22" height="21">
<ellipse rx="10.4814" ry="9.9297" transform="matrix(-1 0 0 1 15.2623 36.406)" fill="#4EE54B"/>
</mask>
<g mask="url(#mask3_148_899)">
<circle r="26.6631" transform="matrix(-1 0 0 1 36.2246 28.8673)" fill="#CAC9D1"/>
</g>
<mask id="mask4_148_899" style="mask-type:alpha" maskUnits="userSpaceOnUse" x="37" y="40" width="22" height="19">
<ellipse rx="10.4814" ry="8.8264" transform="matrix(-1 0 0 1 47.9935 49.2778)" fill="#4EE54B"/>
</mask>
<g mask="url(#mask4_148_899)">
<circle r="26.6631" transform="matrix(-1 0 0 1 36.2251 28.8668)" fill="#CAC9D1"/>
</g>
<path d="M10.2098 28.8831C10.2098 43.3238 21.7869 55.0163 36.0507 55.0163C50.3145 55.0163 61.8916 43.3238 61.8916 28.8831C61.8916 14.4425 50.3145 2.75003 36.0507 2.75003C21.7869 2.75003 10.2098 14.4425 10.2098 28.8831Z" stroke="#323138" stroke-width="1.5"/>
<path d="M40.4495 16.9457C40.8878 18.5818 41.7154 19.9238 42.6734 20.777C43.6352 21.6335 44.6749 21.9589 45.5881 21.7142C46.5012 21.4695 47.239 20.6679 47.6436 19.4452C48.0466 18.2273 48.0923 16.6513 47.654 15.0153C47.2156 13.3793 46.388 12.0373 45.43 11.1841C44.4683 10.3275 43.4285 10.0022 42.5154 10.2469C41.6023 10.4915 40.8645 11.2931 40.4599 12.5158C40.0568 13.7337 40.0111 15.3097 40.4495 16.9457Z" fill="white" stroke="#323138"/>
<ellipse rx="2.39048" ry="4.22932" transform="matrix(-0.965926 0.258819 0.258819 0.965926 45.0024 14.4061)" fill="#323138"/>
<path d="M30.2556 16.9457C30.694 18.5817 31.5216 19.9237 32.4796 20.777C33.4413 21.6335 34.4811 21.9588 35.3942 21.7142C36.3073 21.4695 37.0451 20.6679 37.4497 19.4452C37.8528 18.2273 37.8985 16.6513 37.4601 15.0153C37.0218 13.3793 36.1942 12.0373 35.2362 11.184C34.2744 10.3275 33.2347 10.0022 32.3215 10.2468C31.4084 10.4915 30.6706 11.2931 30.266 12.5158C29.863 13.7337 29.8173 15.3097 30.2556 16.9457Z" fill="white" stroke="#323138"/>
<ellipse rx="2.39048" ry="4.22932" transform="matrix(-0.965926 0.258819 0.258819 0.965926 34.8083 14.4061)" fill="#323138"/>
</svg>
