<svg width="228" height="187" viewBox="0 0 228 187" fill="none" xmlns="http://www.w3.org/2000/svg">
<ellipse cx="108" cy="98.7649" rx="80.2943" ry="81.1767" stroke="white" stroke-width="7"/>
<path d="M187.795 98.7649C187.795 143.327 152.064 179.442 108 179.442C63.9363 179.442 28.2061 143.327 28.2061 98.7649C28.2061 54.2033 63.9363 18.0883 108 18.0883C152.064 18.0883 187.795 54.2033 187.795 98.7649Z" fill="#7DCBFF" stroke="#323138"/>
<mask id="mask0_112_740" style="mask-type:alpha" maskUnits="userSpaceOnUse" x="37" y="22" width="64" height="54">
<ellipse cx="68.6497" cy="49.2969" rx="31.6497" ry="26.6524" fill="#8CF75A"/>
</mask>
<g mask="url(#mask0_112_740)">
<circle cx="109.739" cy="98.715" r="80.5123" fill="#A6E47A"/>
</g>
<mask id="mask1_112_740" style="mask-type:alpha" maskUnits="userSpaceOnUse" x="6" y="52" width="64" height="54">
<ellipse cx="37.6497" cy="79.2805" rx="31.6497" ry="26.6524" fill="#4EE54B"/>
</mask>
<g mask="url(#mask1_112_740)">
<circle cx="109.833" cy="98.7145" r="80.5123" fill="#A6E47A"/>
</g>
<mask id="mask2_112_740" style="mask-type:alpha" maskUnits="userSpaceOnUse" x="153" y="42" width="64" height="61">
<ellipse cx="184.65" cy="72.6177" rx="31.6497" ry="29.9839" fill="#4EE54B"/>
</mask>
<g mask="url(#mask2_112_740)">
<circle cx="106.914" cy="98.7145" r="80.5123" fill="#A6E47A"/>
</g>
<mask id="mask3_112_740" style="mask-type:alpha" maskUnits="userSpaceOnUse" x="139" y="91" width="64" height="61">
<ellipse cx="170.65" cy="121.48" rx="31.6497" ry="29.9839" fill="#4EE54B"/>
</mask>
<g mask="url(#mask3_112_740)">
<circle cx="107.35" cy="98.7141" r="80.5123" fill="#A6E47A"/>
</g>
<mask id="mask4_112_740" style="mask-type:alpha" maskUnits="userSpaceOnUse" x="42" y="133" width="64" height="55">
<ellipse cx="73.6497" cy="160.348" rx="31.6497" ry="26.6524" fill="#4EE54B"/>
</mask>
<g mask="url(#mask4_112_740)">
<circle cx="109.186" cy="98.7141" r="80.5123" fill="#A6E47A"/>
</g>
<path d="M186.795 98.7649C186.795 142.785 151.502 178.442 108 178.442C64.4989 178.442 29.2061 142.785 29.2061 98.7649C29.2061 54.7452 64.4989 19.0883 108 19.0883C151.502 19.0883 186.795 54.7452 186.795 98.7649Z" stroke="#323138" stroke-width="3"/>
<path d="M84.8296 42.082C88.7081 43.649 93.0067 42.6039 96.7167 40.0359C100.439 37.4594 103.744 33.2528 105.842 28.0607C107.94 22.8685 108.484 17.5465 107.597 13.1073C106.712 8.68287 104.346 4.94498 100.467 3.37799C96.5886 1.81099 92.29 2.85614 88.5799 5.42409C84.8575 8.00058 81.5522 12.2072 79.4545 17.3993C77.3567 22.5915 76.8122 27.9135 77.7001 32.3527C78.585 36.7771 80.9512 40.515 84.8296 42.082Z" stroke="white" stroke-width="3"/>
<path d="M115.355 41.807C119.161 43.3448 123.377 42.3178 127.01 39.8027C130.656 37.2792 133.892 33.1602 135.945 28.078C137.999 22.9958 138.532 17.7851 137.663 13.4371C136.796 9.10384 134.477 5.43693 130.671 3.89912C126.865 2.36132 122.649 3.38833 119.016 5.90337C115.37 8.42694 112.134 12.5459 110.081 17.6281C108.027 22.7103 107.494 27.921 108.363 32.269C109.23 36.6023 111.549 40.2692 115.355 41.807Z" stroke="white" stroke-width="3"/>
<path d="M103.623 27.3094C101.676 32.1303 98.6437 35.9328 95.3656 38.2018C92.0793 40.4764 88.6612 41.1459 85.8042 39.9916C82.9471 38.8373 80.9535 35.9813 80.1696 32.0622C79.3877 28.1529 79.8481 23.3113 81.7959 18.4904C83.7437 13.6695 86.7757 9.86696 90.0538 7.59801C93.3401 5.32336 96.7581 4.65385 99.6152 5.80818C102.472 6.9625 104.466 9.81847 105.25 13.7376C106.032 17.6469 105.571 22.4884 103.623 27.3094Z" fill="white" stroke="#323138" stroke-width="2"/>
<ellipse cx="89.8388" cy="18.1472" rx="7.21834" ry="12.7709" transform="rotate(22 89.8388 18.1472)" fill="#323138"/>
<path d="M134.405 27.3094C132.457 32.1303 129.425 35.9328 126.147 38.2018C122.861 40.4764 119.443 41.1459 116.586 39.9916C113.729 38.8373 111.735 35.9813 110.951 32.0622C110.169 28.1529 110.63 23.3113 112.577 18.4904C114.525 13.6695 117.557 9.86696 120.835 7.59801C124.122 5.32336 127.54 4.65385 130.397 5.80818C133.254 6.9625 135.247 9.81847 136.031 13.7376C136.813 17.6469 136.353 22.4884 134.405 27.3094Z" fill="white" stroke="#323138" stroke-width="2"/>
<ellipse cx="120.62" cy="18.1472" rx="7.21834" ry="12.7709" transform="rotate(22 120.62 18.1472)" fill="#323138"/>
<path d="M136.079 41C133.022 45.6078 128.677 56 136.079 56C143.111 56 139.137 46.3922 136.079 41Z" fill="white" stroke="#323138" stroke-width="2"/>
<circle cx="6" cy="17" r="6" fill="#FF8E8A"/>
<path d="M216 164L217.754 171.442L224.485 167.368L220.235 173.819L228 175.5L220.235 177.181L224.485 183.632L217.754 179.558L216 187L214.246 179.558L207.515 183.632L211.765 177.181L204 175.5L211.765 173.819L207.515 167.368L214.246 171.442L216 164Z" fill="#FFCB7D"/>
<circle cx="165" cy="155" r="20" fill="#F74857"/>
<path d="M165.08 164.336C168.704 164.336 171.08 161.168 171.08 155.048C171.08 148.928 168.704 145.904 165.08 145.904C161.456 145.904 159.056 148.904 159.056 155.048C159.056 161.168 161.456 164.336 165.08 164.336ZM165.08 161.576C163.544 161.576 162.392 160.04 162.392 155.048C162.392 150.08 163.544 148.64 165.08 148.64C166.616 148.64 167.744 150.08 167.744 155.048C167.744 160.04 166.616 161.576 165.08 161.576Z" fill="white"/>
</svg>
