<svg width="32" height="32" viewBox="0 0 32 32" fill="none" xmlns="http://www.w3.org/2000/svg">
<path fill-rule="evenodd" clip-rule="evenodd" d="M7.71018 9.54534C7.25613 10.6405 7.02323 11.8146 7.0249 13.0001V14.0001C7.0249 18.4751 6.0874 21.0751 5.2624 22.5001C5.17478 22.6519 5.12857 22.824 5.12842 22.9993C5.12826 23.1745 5.17416 23.3467 5.26151 23.4986C5.34886 23.6505 5.4746 23.7768 5.62613 23.8648C5.77766 23.9529 5.94966 23.9995 6.1249 24.0001H12V25C12 26.0609 12.4214 27.0783 13.1716 27.8284C13.9217 28.5786 14.9391 29 16 29C17.0609 29 18.0783 28.5786 18.8284 27.8284C19.5786 27.0783 20 26.0609 20 25V24.0001H25.8749C26.0501 23.9995 26.2221 23.9529 26.3737 23.8648C26.5252 23.7768 26.6509 23.6505 26.7383 23.4986C26.8256 23.3467 26.8715 23.1745 26.8714 22.9993C26.8712 22.824 26.825 22.6519 26.7374 22.5001C25.9124 21.0751 24.9749 18.4751 24.9749 14.0001V13.1126C24.9749 8.15014 21.0124 4.03764 16.0624 4.00014C14.8769 3.99354 13.7018 4.22156 12.6048 4.67105C11.5078 5.12054 10.5105 5.78263 9.67049 6.61918C8.83046 7.45573 8.16423 8.45021 7.71018 9.54534Z" fill="#FFCD4E"/>
<path d="M7.0249 13.0001L9.5249 13.0001L9.52489 12.9966L7.0249 13.0001ZM5.2624 22.5001L3.09883 21.2475L3.09734 21.2501L5.2624 22.5001ZM5.12842 22.9993L2.62842 22.997L2.62842 22.997L5.12842 22.9993ZM5.26151 23.4986L3.09424 24.7448L3.09425 24.7448L5.26151 23.4986ZM5.62613 23.8648L4.37041 26.0266L4.37041 26.0266L5.62613 23.8648ZM6.1249 24.0001L6.11608 26.5001H6.1249V24.0001ZM12 24.0001H14.5C14.5 22.6194 13.3807 21.5001 12 21.5001V24.0001ZM13.1716 27.8284L11.4038 29.5962L11.4038 29.5962L13.1716 27.8284ZM20 24.0001V21.5001C18.6193 21.5001 17.5 22.6194 17.5 24.0001H20ZM25.8749 24.0001L25.8749 26.5002L25.8837 26.5001L25.8749 24.0001ZM26.7383 23.4986L28.9055 24.7448L28.9056 24.7448L26.7383 23.4986ZM26.8714 22.9993L24.3714 23.0015L26.8714 22.9993ZM26.7374 22.5001L28.9025 21.2501L28.901 21.2475L26.7374 22.5001ZM16.0624 4.00014L16.0813 1.50021L16.0763 1.50018L16.0624 4.00014ZM12.6048 4.67105L13.5527 6.98439L13.5527 6.98439L12.6048 4.67105ZM9.67049 6.61918L11.4346 8.39062L11.4346 8.39062L9.67049 6.61918ZM9.52489 12.9966C9.52369 12.1409 9.6918 11.2933 10.0196 10.5028L5.4008 8.58786C4.82045 9.98761 4.52277 11.4884 4.5249 13.0037L9.52489 12.9966ZM9.5249 14.0001V13.0001H4.5249V14.0001H9.5249ZM7.42596 23.7527C8.51066 21.8792 9.5249 18.8293 9.5249 14.0001H4.5249C4.5249 18.121 3.66413 20.2711 3.09883 21.2475L7.42596 23.7527ZM7.62842 23.0015C7.62818 23.2643 7.55888 23.5225 7.42745 23.7502L3.09734 21.2501C2.79067 21.7813 2.62896 22.3837 2.62842 22.997L7.62842 23.0015ZM7.42878 22.2524C7.5598 22.4803 7.62865 22.7386 7.62842 23.0015L2.62842 22.997C2.62788 23.6104 2.78852 24.2131 3.09424 24.7448L7.42878 22.2524ZM6.88185 21.7031C7.10915 21.8351 7.29775 22.0246 7.42877 22.2524L3.09425 24.7448C3.39997 25.2765 3.84005 25.7185 4.37041 26.0266L6.88185 21.7031ZM6.13371 21.5002C6.39654 21.5011 6.65454 21.5711 6.88185 21.7031L4.37041 26.0266C4.90078 26.3347 5.50277 26.498 6.11608 26.5001L6.13371 21.5002ZM12 21.5001H6.1249V26.5001H12V21.5001ZM9.5 24.0001V25H14.5V24.0001H9.5ZM9.5 25C9.5 26.7239 10.1848 28.3772 11.4038 29.5962L14.9393 26.0607C14.658 25.7794 14.5 25.3978 14.5 25H9.5ZM11.4038 29.5962C12.6228 30.8152 14.2761 31.5 16 31.5V26.5C15.6022 26.5 15.2206 26.342 14.9393 26.0607L11.4038 29.5962ZM16 31.5C17.7239 31.5 19.3772 30.8152 20.5962 29.5962L17.0607 26.0607C16.7794 26.342 16.3978 26.5 16 26.5V31.5ZM20.5962 29.5962C21.8152 28.3772 22.5 26.7239 22.5 25H17.5C17.5 25.3978 17.342 25.7794 17.0607 26.0607L20.5962 29.5962ZM22.5 25V24.0001H17.5V25H22.5ZM25.8749 21.5001H20V26.5001H25.8749V21.5001ZM25.1179 21.7031C25.3453 21.5711 25.6032 21.5011 25.8661 21.5002L25.8837 26.5001C26.497 26.498 27.099 26.3347 27.6294 26.0266L25.1179 21.7031ZM24.571 22.2524C24.702 22.0246 24.8906 21.8351 25.1179 21.7031L27.6294 26.0266C28.1597 25.7185 28.5998 25.2765 28.9055 24.7448L24.571 22.2524ZM24.3714 23.0015C24.3711 22.7386 24.44 22.4803 24.571 22.2525L28.9056 24.7448C29.2113 24.2131 29.3719 23.6104 29.3714 22.9971L24.3714 23.0015ZM24.5723 23.7502C24.4409 23.5225 24.3716 23.2643 24.3714 23.0015L29.3714 22.9971C29.3708 22.3837 29.2091 21.7813 28.9025 21.2501L24.5723 23.7502ZM22.4749 14.0001C22.4749 18.8293 23.4891 21.8792 24.5738 23.7527L28.901 21.2475C28.3357 20.2711 27.4749 18.121 27.4749 14.0001H22.4749ZM22.4749 13.1126V14.0001H27.4749V13.1126H22.4749ZM16.0435 6.50007C19.5752 6.52682 22.4749 9.47806 22.4749 13.1126H27.4749C27.4749 6.82222 22.4496 1.54846 16.0813 1.50021L16.0435 6.50007ZM13.5527 6.98439C14.3445 6.65993 15.1927 6.49534 16.0485 6.5001L16.0763 1.50018C14.561 1.49175 13.0591 1.78319 11.6569 2.35771L13.5527 6.98439ZM11.4346 8.39062C12.0409 7.78677 12.7608 7.30885 13.5527 6.98439L11.6569 2.35771C10.2547 2.93224 8.98011 3.77849 7.9064 4.84774L11.4346 8.39062ZM10.0196 10.5028C10.3473 9.71232 10.8282 8.99447 11.4346 8.39062L7.9064 4.84774C6.8327 5.91699 5.98115 7.1881 5.4008 8.58786L10.0196 10.5028Z" fill="white"/>
<path d="M12 24V25C12 26.0609 12.4214 27.0783 13.1716 27.8284C13.9217 28.5786 14.9391 29 16 29C17.0609 29 18.0783 28.5786 18.8284 27.8284C19.5786 27.0783 20 26.0609 20 25V24" fill="#FFCD4E"/>
<path d="M12 24V25C12 26.0609 12.4214 27.0783 13.1716 27.8284C13.9217 28.5786 14.9391 29 16 29C17.0609 29 18.0783 28.5786 18.8284 27.8284C19.5786 27.0783 20 26.0609 20 25V24" stroke="#1B1A1F" stroke-width="2" stroke-linecap="round" stroke-linejoin="round"/>
<path d="M7.0249 13.0001C7.02323 11.8146 7.25613 10.6405 7.71018 9.54534C8.16423 8.45021 8.83046 7.45573 9.67049 6.61918C10.5105 5.78263 11.5078 5.12054 12.6048 4.67105C13.7018 4.22156 14.8769 3.99354 16.0624 4.00014C21.0124 4.03764 24.9749 8.15014 24.9749 13.1126V14.0001C24.9749 18.4751 25.9124 21.0751 26.7374 22.5001C26.825 22.6519 26.8712 22.824 26.8714 22.9993C26.8715 23.1745 26.8256 23.3467 26.7383 23.4986C26.6509 23.6505 26.5252 23.7768 26.3737 23.8648C26.2221 23.9529 26.0501 23.9995 25.8749 24.0001H6.1249C5.94966 23.9995 5.77766 23.9529 5.62613 23.8648C5.4746 23.7768 5.34886 23.6505 5.26151 23.4986C5.17416 23.3467 5.12826 23.1745 5.12842 22.9993C5.12857 22.824 5.17478 22.6519 5.2624 22.5001C6.0874 21.0751 7.0249 18.4751 7.0249 14.0001V13.0001Z" fill="#FFCD4E" stroke="#1B1A1F" stroke-width="2" stroke-linecap="round" stroke-linejoin="round"/>
</svg>
