<svg width="28" height="28" viewBox="0 0 28 28" fill="none" xmlns="http://www.w3.org/2000/svg">
<path d="M22.75 4.375H5.25C4.76675 4.375 4.375 4.76675 4.375 5.25V22.75C4.375 23.2332 4.76675 23.625 5.25 23.625H22.75C23.2332 23.625 23.625 23.2332 23.625 22.75V5.25C23.625 4.76675 23.2332 4.375 22.75 4.375Z" fill="#FFF7E6" stroke="white" stroke-width="5" stroke-linecap="round" stroke-linejoin="round"/>
<path d="M22.75 4.375H5.25C4.76675 4.375 4.375 4.48184 4.375 4.61364V9.38636C4.375 9.51816 4.76675 9.625 5.25 9.625H22.75C23.2332 9.625 23.625 9.51816 23.625 9.38636V4.61364C23.625 4.48184 23.2332 4.375 22.75 4.375Z" fill="#FFA63D" stroke="#323138" stroke-width="1.5" stroke-linecap="round" stroke-linejoin="round"/>
<path d="M19.25 2.625V6.125" stroke="white" stroke-width="5" stroke-linecap="round" stroke-linejoin="round"/>
<path d="M8.75 2.625V6.125" stroke="white" stroke-width="5" stroke-linecap="round" stroke-linejoin="round"/>
<path d="M17.9375 14L12.8297 18.8125L10.0625 16.1875" stroke="#323138" stroke-width="1.5" stroke-linecap="round" stroke-linejoin="round"/>
<path d="M22.75 4.375H5.25C4.76675 4.375 4.375 4.76675 4.375 5.25V22.75C4.375 23.2332 4.76675 23.625 5.25 23.625H22.75C23.2332 23.625 23.625 23.2332 23.625 22.75V5.25C23.625 4.76675 23.2332 4.375 22.75 4.375Z" fill="#FFF7E6" stroke="#323138" stroke-width="1.5" stroke-linecap="round" stroke-linejoin="round"/>
<path d="M22.75 4.375H5.25C4.76675 4.375 4.375 4.48184 4.375 4.61364V9.38636C4.375 9.51816 4.76675 9.625 5.25 9.625H22.75C23.2332 9.625 23.625 9.51816 23.625 9.38636V4.61364C23.625 4.48184 23.2332 4.375 22.75 4.375Z" fill="#FFA63D" stroke="#323138" stroke-width="1.5" stroke-linecap="round" stroke-linejoin="round"/>
<path d="M19.25 2.625V6.125" stroke="#323138" stroke-width="1.5" stroke-linecap="round" stroke-linejoin="round"/>
<path d="M8.75 2.625V6.125" stroke="#323138" stroke-width="1.5" stroke-linecap="round" stroke-linejoin="round"/>
<path d="M17.9375 14L12.8297 18.8125L10.0625 16.1875" stroke="#323138" stroke-width="1.5" stroke-linecap="round" stroke-linejoin="round"/>
</svg>
