<svg width="194" height="133" viewBox="0 0 194 133" fill="none" xmlns="http://www.w3.org/2000/svg">
<ellipse cx="99.0107" cy="68.0757" rx="54.5315" ry="55.1307" stroke="white" stroke-width="7"/>
<path d="M153.042 68.0757C153.042 98.2526 128.846 122.706 99.0107 122.706C69.1751 122.706 44.9792 98.2526 44.9792 68.0757C44.9792 37.8988 69.1751 13.445 99.0107 13.445C128.846 13.445 153.042 37.8988 153.042 68.0757Z" fill="#7DCBFF" stroke="#323138"/>
<mask id="mask0_370_1097" style="mask-type:alpha" maskUnits="userSpaceOnUse" x="50" y="16" width="44" height="37">
<ellipse cx="72.286" cy="34.4797" rx="21.4947" ry="18.1008" fill="#8CF75A"/>
</mask>
<g mask="url(#mask0_370_1097)">
<circle cx="100.191" cy="68.0418" r="54.6795" fill="#A6E47A"/>
</g>
<mask id="mask1_370_1097" style="mask-type:alpha" maskUnits="userSpaceOnUse" x="29" y="36" width="44" height="37">
<ellipse cx="51.2325" cy="54.843" rx="21.4947" ry="18.1008" fill="#4EE54B"/>
</mask>
<g mask="url(#mask1_370_1097)">
<circle cx="100.255" cy="68.0414" r="54.6795" fill="#A6E47A"/>
</g>
<mask id="mask2_370_1097" style="mask-type:alpha" maskUnits="userSpaceOnUse" x="129" y="29" width="44" height="42">
<ellipse cx="151.067" cy="50.3179" rx="21.4947" ry="20.3634" fill="#4EE54B"/>
</mask>
<g mask="url(#mask2_370_1097)">
<circle cx="98.2728" cy="68.0415" r="54.6795" fill="#A6E47A"/>
</g>
<mask id="mask3_370_1097" style="mask-type:alpha" maskUnits="userSpaceOnUse" x="120" y="63" width="44" height="41">
<ellipse cx="141.559" cy="83.5023" rx="21.4947" ry="20.3634" fill="#4EE54B"/>
</mask>
<g mask="url(#mask3_370_1097)">
<circle cx="98.5692" cy="68.0412" r="54.6795" fill="#A6E47A"/>
</g>
<mask id="mask4_370_1097" style="mask-type:alpha" maskUnits="userSpaceOnUse" x="54" y="91" width="44" height="38">
<ellipse cx="75.6817" cy="109.899" rx="21.4947" ry="18.1008" fill="#4EE54B"/>
</mask>
<g mask="url(#mask4_370_1097)">
<circle cx="99.8162" cy="68.0412" r="54.6795" fill="#A6E47A"/>
</g>
<path d="M152.042 68.0757C152.042 97.7106 128.284 121.706 99.0107 121.706C69.7377 121.706 45.9792 97.7106 45.9792 68.0757C45.9792 38.4408 69.7377 14.445 99.0107 14.445C128.284 14.445 152.042 38.4408 152.042 68.0757Z" stroke="#323138" stroke-width="3"/>
<path d="M83.0943 30.026C85.927 31.1705 89.0182 30.3879 91.6216 28.5859C94.2373 26.7754 96.5366 23.8383 97.9914 20.2376C99.4462 16.6368 99.8325 12.9268 99.2086 9.80738C98.5877 6.70271 96.9077 3.99238 94.075 2.8479C91.2423 1.70343 88.1511 2.48606 85.5477 4.28801C82.932 6.0985 80.6327 9.03562 79.1779 12.6364C77.7231 16.2371 77.3368 19.9472 77.9607 23.0666C78.5817 26.1712 80.2617 28.8816 83.0943 30.026Z" stroke="white" stroke-width="3"/>
<path d="M103.826 29.8392C106.609 30.9639 109.644 30.1936 112.195 28.4276C114.759 26.653 117.011 23.7754 118.436 20.2493C119.86 16.7232 120.239 13.0888 119.628 10.0314C119.019 6.98861 117.371 4.32648 114.588 3.20183C111.804 2.07718 108.77 2.84749 106.218 4.6135C103.654 6.38806 101.402 9.26562 99.9775 12.7917C98.5529 16.3178 98.174 19.9522 98.7856 23.0097C99.3941 26.0524 101.042 28.7146 103.826 29.8392Z" stroke="white" stroke-width="3"/>
<path d="M95.7409 19.4268C94.4381 22.6512 92.4153 25.1802 90.2474 26.6807C88.0714 28.1869 85.8646 28.593 84.0567 27.8626C82.2487 27.1321 80.9435 25.307 80.4244 22.7119C79.9073 20.1267 80.209 16.9023 81.5117 13.6779C82.8145 10.4535 84.8373 7.92447 87.0052 6.42397C89.1812 4.91778 91.388 4.51164 93.1959 5.24209C95.0039 5.97254 96.3092 7.79765 96.8282 10.3927C97.3453 12.978 97.0436 16.2024 95.7409 19.4268Z" fill="white" stroke="#323138" stroke-width="2"/>
<ellipse cx="86.6766" cy="13.3246" rx="4.9023" ry="8.6733" transform="rotate(22 86.6766 13.3246)" fill="#323138"/>
<path d="M116.646 19.4268C115.343 22.6512 113.32 25.1802 111.152 26.6807C108.976 28.1869 106.77 28.593 104.962 27.8626C103.154 27.1321 101.848 25.307 101.329 22.7119C100.812 20.1267 101.114 16.9023 102.417 13.6779C103.72 10.4535 105.742 7.92447 107.91 6.42397C110.086 4.91778 112.293 4.51164 114.101 5.24209C115.909 5.97254 117.214 7.79765 117.733 10.3927C118.25 12.978 117.949 16.2024 116.646 19.4268Z" fill="white" stroke="#323138" stroke-width="2"/>
<ellipse cx="107.582" cy="13.3246" rx="4.9023" ry="8.6733" transform="rotate(22 107.582 13.3246)" fill="#323138"/>
<circle cx="13" cy="8" r="6" fill="#FF8E8A"/>
<circle cx="182" cy="38" r="6" fill="#FF8E8A"/>
<circle cx="6" cy="117" r="6" fill="#FF8E8A"/>
<path d="M182 110L183.754 117.442L190.485 113.368L186.235 119.819L194 121.5L186.235 123.181L190.485 129.632L183.754 125.558L182 133L180.246 125.558L173.515 129.632L177.765 123.181L170 121.5L177.765 119.819L173.515 113.368L180.246 117.442L182 110Z" fill="#FFCB7D"/>
</svg>
