<svg width="173" height="173" viewBox="0 0 173 173" fill="none" xmlns="http://www.w3.org/2000/svg">
<circle cx="86.5" cy="86.5" r="81.5" fill="#FBFAFF" stroke="#E3E1EB" stroke-width="10"/>
<mask id="mask0_112_757" style="mask-type:alpha" maskUnits="userSpaceOnUse" x="0" y="0" width="173" height="173">
<circle cx="86.5" cy="86.5" r="81.5" fill="white" stroke="#E3E1EB" stroke-width="10"/>
</mask>
<g mask="url(#mask0_112_757)">
<path d="M58.2189 101.015C56.0838 97.4488 50.9162 97.4488 48.7811 101.015L8.57365 168.175C6.37888 171.841 9.01985 176.5 13.2926 176.5H93.7074C97.9801 176.5 100.621 171.841 98.4264 168.175L58.2189 101.015Z" fill="#F1F0F7" stroke="#E3E1EB" stroke-width="5"/>
<path d="M118.211 59.9741C116.073 56.4256 110.927 56.4256 108.789 59.9741L43.5994 168.161C41.3905 171.827 44.0305 176.5 48.3102 176.5H178.69C182.97 176.5 185.609 171.827 183.401 168.161L118.211 59.9741Z" fill="#E3E1EB" stroke="#CAC9D1" stroke-width="5"/>
</g>
<circle cx="86.5" cy="86.5" r="81.5" stroke="#E3E1EB" stroke-width="10"/>
<mask id="path-6-inside-1_112_757" fill="white">
<path fill-rule="evenodd" clip-rule="evenodd" d="M32.3413 69.6747C34.5741 69.6747 36.5742 68.6779 37.9206 67.1049C39.2671 68.6779 41.2671 69.6747 43.5 69.6747C45.7329 69.6747 47.7329 68.6779 49.0794 67.1049C50.4258 68.6779 52.4259 69.6747 54.6588 69.6747C58.7132 69.6747 62 66.3879 62 62.3335C62 58.279 58.7132 54.9922 54.6588 54.9922C52.4259 54.9922 50.4258 55.9891 49.0794 57.562C47.7329 55.9891 45.7329 54.9922 43.5 54.9922C41.2671 54.9922 39.2671 55.989 37.9206 57.562C36.5742 55.989 34.5741 54.9922 32.3413 54.9922C28.2868 54.9922 25 58.279 25 62.3335C25 66.3879 28.2868 69.6747 32.3413 69.6747Z"/>
</mask>
<path fill-rule="evenodd" clip-rule="evenodd" d="M32.3413 69.6747C34.5741 69.6747 36.5742 68.6779 37.9206 67.1049C39.2671 68.6779 41.2671 69.6747 43.5 69.6747C45.7329 69.6747 47.7329 68.6779 49.0794 67.1049C50.4258 68.6779 52.4259 69.6747 54.6588 69.6747C58.7132 69.6747 62 66.3879 62 62.3335C62 58.279 58.7132 54.9922 54.6588 54.9922C52.4259 54.9922 50.4258 55.9891 49.0794 57.562C47.7329 55.9891 45.7329 54.9922 43.5 54.9922C41.2671 54.9922 39.2671 55.989 37.9206 57.562C36.5742 55.989 34.5741 54.9922 32.3413 54.9922C28.2868 54.9922 25 58.279 25 62.3335C25 66.3879 28.2868 69.6747 32.3413 69.6747Z" fill="#F1F0F7"/>
<path d="M37.9206 67.1049L38.6803 66.4547L37.9206 65.5672L37.1609 66.4547L37.9206 67.1049ZM49.0794 67.1049L49.8391 66.4546L49.0794 65.5671L48.3197 66.4546L49.0794 67.1049ZM49.0794 57.562L48.3197 58.2123L49.0794 59.0998L49.8391 58.2123L49.0794 57.562ZM37.9206 57.562L37.1609 58.2123L37.9206 59.0997L38.6803 58.2123L37.9206 57.562ZM37.1609 66.4547C35.9964 67.8151 34.2697 68.6747 32.3413 68.6747V70.6747C34.8785 70.6747 37.152 69.5407 38.6803 67.7552L37.1609 66.4547ZM43.5 68.6747C41.5715 68.6747 39.8449 67.8151 38.6803 66.4547L37.1609 67.7552C38.6893 69.5406 40.9627 70.6747 43.5 70.6747V68.6747ZM48.3197 66.4546C47.1551 67.8151 45.4285 68.6747 43.5 68.6747V70.6747C46.0373 70.6747 48.3107 69.5406 49.8391 67.7552L48.3197 66.4546ZM54.6588 68.6747C52.7303 68.6747 51.0036 67.8151 49.8391 66.4546L48.3197 67.7552C49.848 69.5406 52.1215 70.6747 54.6588 70.6747V68.6747ZM61 62.3335C61 65.8356 58.161 68.6747 54.6588 68.6747V70.6747C59.2655 70.6747 63 66.9402 63 62.3335H61ZM54.6588 55.9922C58.161 55.9922 61 58.8313 61 62.3335H63C63 57.7267 59.2655 53.9922 54.6588 53.9922V55.9922ZM49.8391 58.2123C51.0036 56.8518 52.7303 55.9922 54.6588 55.9922V53.9922C52.1215 53.9922 49.848 55.1263 48.3197 56.9117L49.8391 58.2123ZM43.5 55.9922C45.4285 55.9922 47.1551 56.8518 48.3197 58.2123L49.8391 56.9117C48.3107 55.1263 46.0373 53.9922 43.5 53.9922V55.9922ZM38.6803 58.2123C39.8449 56.8518 41.5715 55.9922 43.5 55.9922V53.9922C40.9627 53.9922 38.6893 55.1263 37.1609 56.9117L38.6803 58.2123ZM32.3413 55.9922C34.2697 55.9922 35.9964 56.8518 37.1609 58.2123L38.6803 56.9117C37.152 55.1263 34.8785 53.9922 32.3413 53.9922V55.9922ZM26 62.3335C26 58.8313 28.8391 55.9922 32.3413 55.9922V53.9922C27.7345 53.9922 24 57.7267 24 62.3335H26ZM32.3413 68.6747C28.8391 68.6747 26 65.8356 26 62.3335H24C24 66.9402 27.7345 70.6747 32.3413 70.6747V68.6747Z" fill="#E3E1EB" mask="url(#path-6-inside-1_112_757)"/>
<mask id="path-8-inside-2_112_757" fill="white">
<path fill-rule="evenodd" clip-rule="evenodd" d="M120.325 107.651C123.162 107.651 125.702 106.385 127.413 104.386C129.123 106.385 131.664 107.651 134.5 107.651C137.336 107.651 139.877 106.384 141.587 104.386C143.298 106.384 145.838 107.651 148.675 107.651C153.825 107.651 158 103.476 158 98.3254C158 93.1751 153.825 89 148.675 89C145.838 89 143.298 90.2663 141.587 92.2644C139.877 90.2663 137.336 89 134.5 89C131.664 89 129.123 90.2663 127.413 92.2643C125.702 90.2663 123.162 89 120.325 89C115.175 89 111 93.1751 111 98.3254C111 103.476 115.175 107.651 120.325 107.651Z"/>
</mask>
<path fill-rule="evenodd" clip-rule="evenodd" d="M120.325 107.651C123.162 107.651 125.702 106.385 127.413 104.386C129.123 106.385 131.664 107.651 134.5 107.651C137.336 107.651 139.877 106.384 141.587 104.386C143.298 106.384 145.838 107.651 148.675 107.651C153.825 107.651 158 103.476 158 98.3254C158 93.1751 153.825 89 148.675 89C145.838 89 143.298 90.2663 141.587 92.2644C139.877 90.2663 137.336 89 134.5 89C131.664 89 129.123 90.2663 127.413 92.2643C125.702 90.2663 123.162 89 120.325 89C115.175 89 111 93.1751 111 98.3254C111 103.476 115.175 107.651 120.325 107.651Z" fill="#F1F0F7"/>
<path d="M127.413 104.386L128.172 103.736L127.413 102.849L126.653 103.736L127.413 104.386ZM141.587 104.386L142.347 103.736L141.587 102.849L140.828 103.736L141.587 104.386ZM141.587 92.2644L140.828 92.9147L141.587 93.8022L142.347 92.9147L141.587 92.2644ZM127.413 92.2643L126.653 92.9146L127.413 93.8021L128.172 92.9146L127.413 92.2643ZM126.653 103.736C125.125 105.522 122.857 106.651 120.325 106.651V108.651C123.466 108.651 126.28 107.247 128.172 105.037L126.653 103.736ZM134.5 106.651C131.968 106.651 129.701 105.522 128.172 103.736L126.653 105.037C128.545 107.247 131.359 108.651 134.5 108.651V106.651ZM140.828 103.736C139.299 105.522 137.032 106.651 134.5 106.651V108.651C137.641 108.651 140.455 107.247 142.347 105.037L140.828 103.736ZM148.675 106.651C146.143 106.651 143.875 105.522 142.347 103.736L140.828 105.037C142.72 107.247 145.534 108.651 148.675 108.651V106.651ZM157 98.3254C157 102.923 153.273 106.651 148.675 106.651V108.651C154.377 108.651 159 104.028 159 98.3254H157ZM148.675 90C153.273 90 157 93.7274 157 98.3254H159C159 92.6228 154.377 88 148.675 88V90ZM142.347 92.9147C143.875 91.1291 146.143 90 148.675 90V88C145.534 88 142.72 89.4035 140.828 91.6141L142.347 92.9147ZM134.5 90C137.032 90 139.299 91.1291 140.828 92.9147L142.347 91.6141C140.455 89.4035 137.641 88 134.5 88V90ZM128.172 92.9146C129.701 91.129 131.968 90 134.5 90V88C131.359 88 128.545 89.4035 126.653 91.614L128.172 92.9146ZM120.325 90C122.857 90 125.125 91.129 126.653 92.9146L128.172 91.614C126.28 89.4035 123.466 88 120.325 88V90ZM112 98.3254C112 93.7274 115.727 90 120.325 90V88C114.623 88 110 92.6228 110 98.3254H112ZM120.325 106.651C115.727 106.651 112 102.923 112 98.3254H110C110 104.028 114.623 108.651 120.325 108.651V106.651Z" fill="#E3E1EB" mask="url(#path-8-inside-2_112_757)"/>
</svg>
