<svg width="173" height="174" viewBox="0 0 173 174" fill="none" xmlns="http://www.w3.org/2000/svg">
<circle cx="86.5" cy="86.8604" r="81.5" fill="#FBFAFF" stroke="#E3E1EB" stroke-width="10"/>
<mask id="mask0_112_756" style="mask-type:alpha" maskUnits="userSpaceOnUse" x="0" y="0" width="173" height="174">
<circle cx="86.5" cy="86.8604" r="85" fill="#E6F7FF" stroke="#237804" stroke-width="3"/>
</mask>
<g mask="url(#mask0_112_756)">
<path d="M58.2189 101.376C56.0838 97.8091 50.9162 97.8091 48.7811 101.376L8.57365 168.535C6.37888 172.201 9.01985 176.86 13.2926 176.86H93.7074C97.9801 176.86 100.621 172.201 98.4264 168.535L58.2189 101.376Z" fill="#CDF5B0" stroke="#323138" stroke-width="5"/>
<path d="M118.211 60.3345C116.073 56.7859 110.927 56.786 108.789 60.3345L43.5994 168.522C41.3905 172.187 44.0305 176.86 48.3102 176.86H178.69C182.97 176.86 185.609 172.187 183.401 168.522L118.211 60.3345Z" fill="#A6E47A" stroke="#323138" stroke-width="5"/>
</g>
<circle cx="86.5" cy="86.8604" r="81.5" stroke="#52C41A" stroke-width="10"/>
<mask id="path-6-inside-1_112_756" fill="white">
<path fill-rule="evenodd" clip-rule="evenodd" d="M32.3413 70.0351C34.5741 70.0351 36.5742 69.0382 37.9206 67.4653C39.2671 69.0382 41.2671 70.0351 43.5 70.0351C45.7329 70.0351 47.7329 69.0382 49.0794 67.4652C50.4258 69.0382 52.4259 70.0351 54.6588 70.0351C58.7132 70.0351 62 66.7483 62 62.6938C62 58.6393 58.7132 55.3525 54.6588 55.3525C52.4259 55.3525 50.4258 56.3494 49.0794 57.9224C47.7329 56.3494 45.7329 55.3525 43.5 55.3525C41.2671 55.3525 39.2671 56.3494 37.9206 57.9223C36.5742 56.3494 34.5741 55.3525 32.3413 55.3525C28.2868 55.3525 25 58.6393 25 62.6938C25 66.7483 28.2868 70.0351 32.3413 70.0351Z"/>
</mask>
<path fill-rule="evenodd" clip-rule="evenodd" d="M32.3413 70.0351C34.5741 70.0351 36.5742 69.0382 37.9206 67.4653C39.2671 69.0382 41.2671 70.0351 43.5 70.0351C45.7329 70.0351 47.7329 69.0382 49.0794 67.4652C50.4258 69.0382 52.4259 70.0351 54.6588 70.0351C58.7132 70.0351 62 66.7483 62 62.6938C62 58.6393 58.7132 55.3525 54.6588 55.3525C52.4259 55.3525 50.4258 56.3494 49.0794 57.9224C47.7329 56.3494 45.7329 55.3525 43.5 55.3525C41.2671 55.3525 39.2671 56.3494 37.9206 57.9223C36.5742 56.3494 34.5741 55.3525 32.3413 55.3525C28.2868 55.3525 25 58.6393 25 62.6938C25 66.7483 28.2868 70.0351 32.3413 70.0351Z" fill="white"/>
<path d="M37.9206 67.4653L39.8198 65.8396L37.9206 63.6209L36.0214 65.8396L37.9206 67.4653ZM49.0794 67.4652L50.9786 65.8395L49.0794 63.6208L47.1801 65.8395L49.0794 67.4652ZM49.0794 57.9224L47.1801 59.5481L49.0794 61.7668L50.9786 59.5481L49.0794 57.9224ZM37.9206 57.9223L36.0214 59.5481L37.9206 61.7667L39.8198 59.5481L37.9206 57.9223ZM36.0214 65.8396C35.1297 66.8813 33.8131 67.5351 32.3413 67.5351V72.5351C35.3351 72.5351 38.0187 71.1952 39.8198 69.091L36.0214 65.8396ZM43.5 67.5351C42.0281 67.5351 40.7116 66.8813 39.8198 65.8396L36.0214 69.091C37.8226 71.1952 40.5061 72.5351 43.5 72.5351V67.5351ZM47.1801 65.8395C46.2884 66.8813 44.9719 67.5351 43.5 67.5351V72.5351C46.4938 72.5351 49.1774 71.1951 50.9786 69.091L47.1801 65.8395ZM54.6588 67.5351C53.1869 67.5351 51.8703 66.8813 50.9786 65.8395L47.1801 69.091C48.9813 71.1951 51.6649 72.5351 54.6588 72.5351V67.5351ZM59.5 62.6938C59.5 65.3676 57.3325 67.5351 54.6588 67.5351V72.5351C60.0939 72.5351 64.5 68.129 64.5 62.6938H59.5ZM54.6588 57.8525C57.3325 57.8525 59.5 60.0201 59.5 62.6938H64.5C64.5 57.2586 60.0939 52.8525 54.6588 52.8525V57.8525ZM50.9786 59.5481C51.8703 58.5063 53.1869 57.8525 54.6588 57.8525V52.8525C51.6649 52.8525 48.9813 54.1925 47.1801 56.2967L50.9786 59.5481ZM43.5 57.8525C44.9719 57.8525 46.2884 58.5063 47.1801 59.5481L50.9786 56.2967C49.1774 54.1925 46.4938 52.8525 43.5 52.8525V57.8525ZM39.8198 59.5481C40.7116 58.5063 42.0281 57.8525 43.5 57.8525V52.8525C40.5061 52.8525 37.8226 54.1925 36.0214 56.2966L39.8198 59.5481ZM32.3413 57.8525C33.8131 57.8525 35.1297 58.5063 36.0214 59.5481L39.8198 56.2966C38.0187 54.1925 35.3351 52.8525 32.3413 52.8525V57.8525ZM27.5 62.6938C27.5 60.02 29.6675 57.8525 32.3413 57.8525V52.8525C26.9061 52.8525 22.5 57.2586 22.5 62.6938H27.5ZM32.3413 67.5351C29.6675 67.5351 27.5 65.3676 27.5 62.6938H22.5C22.5 68.129 26.9061 72.5351 32.3413 72.5351V67.5351Z" fill="#323138" mask="url(#path-6-inside-1_112_756)"/>
<mask id="path-8-inside-2_112_756" fill="white">
<path fill-rule="evenodd" clip-rule="evenodd" d="M120.325 108.011C123.162 108.011 125.702 106.745 127.413 104.747C129.123 106.745 131.664 108.011 134.5 108.011C137.336 108.011 139.877 106.745 141.587 104.747C143.298 106.745 145.838 108.011 148.675 108.011C153.825 108.011 158 103.836 158 98.6857C158 93.5355 153.825 89.3604 148.675 89.3604C145.838 89.3604 143.298 90.6266 141.587 92.6247C139.877 90.6266 137.336 89.3604 134.5 89.3604C131.664 89.3604 129.123 90.6266 127.413 92.6247C125.702 90.6266 123.162 89.3604 120.325 89.3604C115.175 89.3604 111 93.5355 111 98.6857C111 103.836 115.175 108.011 120.325 108.011Z"/>
</mask>
<path fill-rule="evenodd" clip-rule="evenodd" d="M120.325 108.011C123.162 108.011 125.702 106.745 127.413 104.747C129.123 106.745 131.664 108.011 134.5 108.011C137.336 108.011 139.877 106.745 141.587 104.747C143.298 106.745 145.838 108.011 148.675 108.011C153.825 108.011 158 103.836 158 98.6857C158 93.5355 153.825 89.3604 148.675 89.3604C145.838 89.3604 143.298 90.6266 141.587 92.6247C139.877 90.6266 137.336 89.3604 134.5 89.3604C131.664 89.3604 129.123 90.6266 127.413 92.6247C125.702 90.6266 123.162 89.3604 120.325 89.3604C115.175 89.3604 111 93.5355 111 98.6857C111 103.836 115.175 108.011 120.325 108.011Z" fill="white"/>
<path d="M127.413 104.747L129.692 102.796L127.413 100.134L125.134 102.796L127.413 104.747ZM141.587 104.747L143.866 102.796L141.587 100.133L139.308 102.796L141.587 104.747ZM141.587 92.6247L139.308 94.5756L141.587 97.2381L143.866 94.5756L141.587 92.6247ZM127.413 92.6247L125.134 94.5756L127.413 97.2379L129.692 94.5756L127.413 92.6247ZM125.134 102.796C123.969 104.157 122.249 105.011 120.325 105.011V111.011C124.075 111.011 127.436 109.333 129.692 106.698L125.134 102.796ZM134.5 105.011C132.577 105.011 130.856 104.157 129.692 102.796L125.134 106.698C127.39 109.333 130.75 111.011 134.5 111.011V105.011ZM139.308 102.796C138.144 104.157 136.423 105.011 134.5 105.011V111.011C138.25 111.011 141.61 109.333 143.866 106.698L139.308 102.796ZM148.675 105.011C146.751 105.011 145.031 104.157 143.866 102.796L139.308 106.698C141.564 109.333 144.925 111.011 148.675 111.011V105.011ZM155 98.6857C155 102.179 152.168 105.011 148.675 105.011V111.011C155.482 111.011 161 105.493 161 98.6857H155ZM148.675 92.3604C152.168 92.3604 155 95.1923 155 98.6857H161C161 91.8786 155.482 86.3604 148.675 86.3604V92.3604ZM143.866 94.5756C145.031 93.2149 146.751 92.3604 148.675 92.3604V86.3604C144.925 86.3604 141.564 88.0384 139.308 90.6739L143.866 94.5756ZM134.5 92.3604C136.423 92.3604 138.144 93.2149 139.308 94.5756L143.866 90.6739C141.61 88.0384 138.25 86.3604 134.5 86.3604V92.3604ZM129.692 94.5756C130.856 93.2149 132.577 92.3604 134.5 92.3604V86.3604C130.75 86.3604 127.39 88.0383 125.134 90.6738L129.692 94.5756ZM120.325 92.3604C122.249 92.3604 123.969 93.2149 125.134 94.5756L129.692 90.6738C127.436 88.0383 124.075 86.3604 120.325 86.3604V92.3604ZM114 98.6857C114 95.1923 116.832 92.3604 120.325 92.3604V86.3604C113.518 86.3604 108 91.8786 108 98.6857H114ZM120.325 105.011C116.832 105.011 114 102.179 114 98.6857H108C108 105.493 113.518 111.011 120.325 111.011V105.011Z" fill="#323138" mask="url(#path-8-inside-2_112_756)"/>
</svg>
