<svg width="173" height="173" viewBox="0 0 173 173" fill="none" xmlns="http://www.w3.org/2000/svg">
<circle cx="86.5" cy="86.5" r="81.5" fill="#FBFAFF" stroke="#E3E1EB" stroke-width="10"/>
<circle cx="86.5" cy="86.5" r="81.5" fill="#F4D7DD" stroke="#F74857" stroke-width="10"/>
<path d="M102.312 84.9375V65.0312C102.312 63.0007 103.118 61.0533 104.554 59.6175C105.99 58.1816 107.937 57.375 109.968 57.375C111.998 57.375 113.946 58.1816 115.382 59.6175C116.817 61.0533 117.624 63.0007 117.624 65.0312V97.1875C117.624 101.209 116.832 105.192 115.293 108.907C113.754 112.623 111.498 115.999 108.654 118.843C105.81 121.686 102.434 123.942 98.7187 125.481C95.0031 127.02 91.0208 127.812 86.9991 127.812C70.0787 127.812 62.4991 118.625 50.0194 92.3258C49.0041 90.5643 48.7301 88.4716 49.2578 86.5081C49.7855 84.5446 51.0715 82.8711 52.833 81.8559C54.5946 80.8406 56.6872 80.5666 58.6507 81.0943C60.6142 81.622 62.2877 82.908 63.303 84.6695L71.6866 99.2164V58.9062C71.6866 56.8757 72.4932 54.9283 73.929 53.4925C75.3648 52.0566 77.3122 51.25 79.3428 51.25C81.3734 51.25 83.3208 52.0566 84.7566 53.4925C86.1924 54.9283 86.9991 56.8757 86.9991 58.9062V84.9375" fill="#E3E1EB"/>
<path d="M102.312 84.9375V65.0312C102.312 63.0007 103.118 61.0533 104.554 59.6175C105.99 58.1816 107.937 57.375 109.968 57.375C111.998 57.375 113.946 58.1816 115.382 59.6175C116.817 61.0533 117.624 63.0007 117.624 65.0312V97.1875C117.624 101.209 116.832 105.192 115.293 108.907C113.754 112.623 111.498 115.999 108.654 118.843C105.81 121.686 102.434 123.942 98.7187 125.481C95.0031 127.02 91.0208 127.812 86.9991 127.812C70.0787 127.812 62.4991 118.625 50.0194 92.3258C49.0041 90.5643 48.7301 88.4716 49.2578 86.5081C49.7855 84.5446 51.0715 82.8711 52.833 81.8559C54.5946 80.8406 56.6872 80.5666 58.6507 81.0943C60.6142 81.622 62.2877 82.908 63.303 84.6695L71.6866 99.2164V58.9062C71.6866 56.8757 72.4932 54.9283 73.929 53.4925C75.3648 52.0566 77.3122 51.25 79.3428 51.25C81.3734 51.25 83.3208 52.0566 84.7566 53.4925C86.1924 54.9283 86.9991 56.8757 86.9991 58.9062V84.9375" stroke="#F1F0F7" stroke-width="20" stroke-linecap="round" stroke-linejoin="round"/>
<path d="M102.312 85.1512V52.7812C102.312 50.7507 101.506 48.8033 100.07 47.3675C98.6342 45.9316 96.6868 45.125 94.6562 45.125C92.6257 45.125 90.6783 45.9316 89.2425 47.3675C87.8066 48.8033 87 50.7507 87 52.7812V85.1512" fill="#E3E1EB"/>
<path d="M102.312 85.1512V52.7812C102.312 50.7507 101.506 48.8033 100.07 47.3675C98.6342 45.9316 96.6868 45.125 94.6562 45.125C92.6257 45.125 90.6783 45.9316 89.2425 47.3675C87.8066 48.8033 87 50.7507 87 52.7812V85.1512" stroke="#F1F0F7" stroke-width="20" stroke-linecap="round" stroke-linejoin="round"/>
<path d="M102.312 84.9375V65.0312C102.312 63.0007 103.118 61.0533 104.554 59.6175C105.99 58.1816 107.937 57.375 109.968 57.375C111.998 57.375 113.946 58.1816 115.382 59.6175C116.817 61.0533 117.624 63.0007 117.624 65.0312V97.1875C117.624 101.209 116.832 105.192 115.293 108.907C113.754 112.623 111.498 115.999 108.654 118.843C105.81 121.686 102.434 123.942 98.7187 125.481C95.0031 127.02 91.0208 127.812 86.9991 127.812C70.0787 127.812 62.4991 118.625 50.0194 92.3258C49.0041 90.5643 48.7301 88.4716 49.2578 86.5081C49.7855 84.5446 51.0715 82.8711 52.833 81.8559C54.5946 80.8406 56.6872 80.5666 58.6507 81.0943C60.6142 81.622 62.2877 82.908 63.303 84.6695L71.6866 99.2164V58.9062C71.6866 56.8757 72.4932 54.9283 73.929 53.4925C75.3648 52.0566 77.3122 51.25 79.3428 51.25C81.3734 51.25 83.3208 52.0566 84.7566 53.4925C86.1924 54.9283 86.9991 56.8757 86.9991 58.9062V84.9375" fill="#FFCD4E"/>
<path d="M102.312 84.9375V65.0312C102.312 63.0007 103.118 61.0533 104.554 59.6175C105.99 58.1816 107.937 57.375 109.968 57.375C111.998 57.375 113.946 58.1816 115.382 59.6175C116.817 61.0533 117.624 63.0007 117.624 65.0312V97.1875C117.624 101.209 116.832 105.192 115.293 108.907C113.754 112.623 111.498 115.999 108.654 118.843C105.81 121.686 102.434 123.942 98.7187 125.481C95.0031 127.02 91.0208 127.812 86.9991 127.812C70.0787 127.812 62.4991 118.625 50.0194 92.3258C49.0041 90.5643 48.7301 88.4716 49.2578 86.5081C49.7855 84.5446 51.0715 82.8711 52.833 81.8559C54.5946 80.8406 56.6872 80.5666 58.6507 81.0943C60.6142 81.622 62.2877 82.908 63.303 84.6695L71.6866 99.2164V58.9062C71.6866 56.8757 72.4932 54.9283 73.929 53.4925C75.3648 52.0566 77.3122 51.25 79.3428 51.25C81.3734 51.25 83.3208 52.0566 84.7566 53.4925C86.1924 54.9283 86.9991 56.8757 86.9991 58.9062V84.9375" stroke="#676570" stroke-width="5" stroke-linecap="round" stroke-linejoin="round"/>
<path d="M102.312 85.1512V52.7812C102.312 50.7507 101.506 48.8033 100.07 47.3675C98.6342 45.9316 96.6868 45.125 94.6562 45.125C92.6257 45.125 90.6783 45.9316 89.2425 47.3675C87.8066 48.8033 87 50.7507 87 52.7812V85.1512" fill="#FFCD4E"/>
<path d="M102.312 85.1512V52.7812C102.312 50.7507 101.506 48.8033 100.07 47.3675C98.6342 45.9316 96.6868 45.125 94.6562 45.125C92.6257 45.125 90.6783 45.9316 89.2425 47.3675C87.8066 48.8033 87 50.7507 87 52.7812V85.1512" stroke="#676570" stroke-width="5" stroke-linecap="round" stroke-linejoin="round"/>
<line x1="28.744" y1="33.4645" x2="139.744" y2="144.464" stroke="#F74857" stroke-width="10"/>
</svg>
