<svg width="173" height="173" viewBox="0 0 173 173" fill="none" xmlns="http://www.w3.org/2000/svg">
<circle cx="86.5" cy="86.5" r="81.5" fill="#FBFAFF" stroke="#E3E1EB" stroke-width="10"/>
<circle cx="86.5" cy="86.5" r="81.5" stroke="#E3E1EB" stroke-width="10"/>
<path d="M70.6875 127.812H101.312" stroke="#F1F0F7" stroke-width="20" stroke-linecap="round" stroke-linejoin="round"/>
<path d="M67.1277 102.93C63.4817 100.095 60.5288 96.4671 58.4927 92.3218C56.4565 88.1765 55.3904 83.6221 55.3753 79.0037C55.2988 62.3897 68.6589 48.5701 85.273 48.1873C91.7029 48.0349 98.0177 49.9108 103.322 53.5489C108.626 57.187 112.65 62.4026 114.823 68.4561C116.996 74.5097 117.208 81.0937 115.429 87.2746C113.65 93.4554 109.97 98.9193 104.911 102.891C103.794 103.755 102.889 104.863 102.265 106.13C101.641 107.397 101.316 108.791 101.313 110.203V112.5C101.313 113.312 100.99 114.091 100.416 114.665C99.8415 115.24 99.0625 115.562 98.2503 115.562H73.7503C72.9381 115.562 72.1591 115.24 71.5848 114.665C71.0105 114.091 70.6878 113.312 70.6878 112.5V110.203C70.6782 108.801 70.3533 107.419 69.737 106.16C69.1207 104.901 68.2289 103.797 67.1277 102.93Z" fill="#E3E1EB" stroke="#F1F0F7" stroke-width="20" stroke-linecap="round" stroke-linejoin="round"/>
<path d="M70.6875 127.812H101.312" stroke="#CAC9D1" stroke-width="5" stroke-linecap="round" stroke-linejoin="round"/>
<path d="M67.1277 102.93C63.4817 100.095 60.5288 96.4671 58.4927 92.3218C56.4565 88.1765 55.3904 83.6221 55.3753 79.0037C55.2988 62.3897 68.6589 48.5701 85.273 48.1873C91.7029 48.0349 98.0177 49.9108 103.322 53.5489C108.626 57.187 112.65 62.4026 114.823 68.4561C116.996 74.5097 117.208 81.0937 115.429 87.2746C113.65 93.4554 109.97 98.9193 104.911 102.891C103.794 103.755 102.889 104.863 102.265 106.13C101.641 107.397 101.316 108.791 101.313 110.203V112.5C101.313 113.312 100.99 114.091 100.416 114.665C99.8415 115.24 99.0625 115.562 98.2503 115.562H73.7503C72.9381 115.562 72.1591 115.24 71.5848 114.665C71.0105 114.091 70.6878 113.312 70.6878 112.5V110.203C70.6782 108.801 70.3533 107.419 69.737 106.16C69.1207 104.901 68.2289 103.797 67.1277 102.93Z" fill="#E3E1EB" stroke="#CAC9D1" stroke-width="5" stroke-linecap="round" stroke-linejoin="round"/>
<path d="M86 115.562V94.125" stroke="#CAC9D1" stroke-width="5" stroke-linecap="round" stroke-linejoin="round"/>
<path d="M73.75 81.875L86 94.125L98.25 81.875" stroke="#CAC9D1" stroke-width="5" stroke-linecap="round" stroke-linejoin="round"/>
</svg>
